{
  "accessors": [
    {
      "bufferView": 2,
      "componentType": 5126,
      "count": 4,
      "max": [
        62.894401550292969,
        28.489398956298828,
        35.593101501464844
      ],
      "min": [
        2.1865997314453125,
        1.8939990997314453,
        8.9976997375488281
      ],
      "type": "VEC3"
    },
    {
      "bufferView": 2,
      "byteOffset": 48,
      "componentType": 5126,
      "count": 4,
      "max": [
        0,
        -0.7071068286895752,
        0.7071068286895752
      ],
      "min": [
        0,
        -0.7071068286895752,
        0.7071068286895752
      ],
      "type": "VEC3"
    },
    {
      "bufferView": 3,
      "componentType": 5126,
      "count": 4,
      "max": [
        -1,
        0,
        0,
        -1
      ],
      "min": [
        -1,
        0,
        0,
        -1
      ],
      "type": "VEC4"
    },
    {
      "bufferView": 1,
      "componentType": 5126,
      "count": 4,
      "max": [
        3.9839000701904297,
        3.0697000026702881
      ],
      "min": [
        -3.9800000190734863,
        -1.8904999494552612
      ],
      "type": "VEC2"
    },
    {
      "bufferView": 0,
      "componentType": 5125,
      "count": 6,
      "max": [
        3
      ],
      "min": [
        0
      ],
      "type": "SCALAR"
    },
    {
      "bufferView": 2,
      "byteOffset": 96,
      "componentType": 5126,
      "count": 719,
      "max": [
        65.059700012207031,
        51.668899536132812,
        37.548603057861328
      ],
      "min": [
        0,
        0,
        0
      ],
      "type": "VEC3"
    },
    {
      "bufferView": 2,
      "byteOffset": 8724,
      "componentType": 5126,
      "count": 719,
      "max": [
        1,
        0.85898929834365845,
        0.99999940395355225
      ],
      "min": [
        -1,
        -0.9985891580581665,
        -1
      ],
      "type": "VEC3"
    },
    {
      "bufferView": 3,
      "byteOffset": 64,
      "componentType": 5126,
      "count": 719,
      "max": [
        1,
        0.99999988079071045,
        0.96752327680587769,
        1
      ],
      "min": [
        -1,
        -1,
        -0.98236256837844849,
        -1
      ],
      "type": "VEC4"
    },
    {
      "bufferView": 1,
      "byteOffset": 32,
      "componentType": 5126,
      "count": 719,
      "max": [
        0.99629998207092285,
        0.99949997663497925
      ],
      "min": [
        0.00050000002374872565,
        0.00050000002374872565
      ],
      "type": "VEC2"
    },
    {
      "bufferView": 0,
      "byteOffset": 24,
      "componentType": 5125,
      "count": 2082,
      "max": [
        718
      ],
      "min": [
        0
      ],
      "type": "SCALAR"
    }
  ],
  "asset": {
    "extras": {
      "author": "liamch (https://sketchfab.com/liamch)",
      "license": "CC-BY-4.0 (http://creativecommons.org/licenses/by/4.0/)",
      "source": "https://sketchfab.com/models/ae2e02709dfe4593be6e878267b7d32d",
      "title": "Stage Wedge Game Asset"
    },
    "generator": "Sketchfab-3.19.6",
    "version": "2.0"
  },
  "bufferViews": [
    {
      "buffer": 0,
      "byteLength": 8352,
      "byteOffset": 0,
      "name": "floatBufferViews",
      "target": 34963
    },
    {
      "buffer": 0,
      "byteLength": 5784,
      "byteOffset": 8352,
      "byteStride": 8,
      "name": "floatBufferViews",
      "target": 34962
    },
    {
      "buffer": 0,
      "byteLength": 17352,
      "byteOffset": 14136,
      "byteStride": 12,
      "name": "floatBufferViews",
      "target": 34962
    },
    {
      "buffer": 0,
      "byteLength": 11568,
      "byteOffset": 31488,
      "byteStride": 16,
      "name": "floatBufferViews",
      "target": 34962
    }
  ],
  "buffers": [
    {
      "byteLength": 43056,
      "uri": "scene.bin"
    }
  ],
  "extensionsRequired": [
    "KHR_materials_pbrSpecularGlossiness"
  ],
  "extensionsUsed": [
    "KHR_materials_pbrSpecularGlossiness"
  ],
  "images": [
    {
      "uri": "textures/Material__46_diffuse.png"
    },
    {
      "uri": "textures/Material__46_specularGlossiness.png"
    },
    {
      "uri": "textures/Material__46_normal.png"
    },
    {
      "uri": "textures/wire_134006006_emissive.png"
    },
    {
      "uri": "textures/wire_134006006_diffuse.png"
    },
    {
      "uri": "textures/wire_134006006_specularGlossiness.png"
    },
    {
      "uri": "textures/wire_134006006_normal.png"
    }
  ],
  "materials": [
    {
      "alphaCutoff": 0.5,
      "alphaMode": "MASK",
      "doubleSided": false,
      "emissiveFactor": [
        0,
        0,
        0
      ],
      "extensions": {
        "KHR_materials_pbrSpecularGlossiness": {
          "diffuseFactor": [
            1,
            1,
            1,
            1
          ],
          "diffuseTexture": {
            "index": 0,
            "texCoord": 0
          },
          "glossinessFactor": 1,
          "specularFactor": [
            1,
            1,
            1
          ],
          "specularGlossinessTexture": {
            "index": 1,
            "texCoord": 0
          }
        }
      },
      "name": "Material__46",
      "normalTexture": {
        "index": 2,
        "scale": 1,
        "texCoord": 0
      }
    },
    {
      "doubleSided": false,
      "emissiveFactor": [
        1,
        1,
        1
      ],
      "emissiveTexture": {
        "index": 3,
        "texCoord": 0
      },
      "extensions": {
        "KHR_materials_pbrSpecularGlossiness": {
          "diffuseFactor": [
            1,
            1,
            1,
            1
          ],
          "diffuseTexture": {
            "index": 4,
            "texCoord": 0
          },
          "glossinessFactor": 1,
          "specularFactor": [
            1,
            1,
            1
          ],
          "specularGlossinessTexture": {
            "index": 5,
            "texCoord": 0
          }
        }
      },
      "name": "wire_134006006",
      "normalTexture": {
        "index": 6,
        "scale": 1,
        "texCoord": 0
      }
    }
  ],
  "meshes": [
    {
      "primitives": [
        {
          "attributes": {
            "NORMAL": 1,
            "POSITION": 0,
            "TANGENT": 2,
            "TEXCOORD_0": 3
          },
          "indices": 4,
          "material": 0,
          "mode": 4
        }
      ]
    },
    {
      "primitives": [
        {
          "attributes": {
            "NORMAL": 6,
            "POSITION": 5,
            "TANGENT": 7,
            "TEXCOORD_0": 8
          },
          "indices": 9,
          "material": 1,
          "mode": 4
        }
      ]
    }
  ],
  "nodes": [
    {
      "children": [
        1
      ],
      "name": "RootNode (gltf orientation matrix)",
      "rotation": [
        -0.70710678118654746,
        -0,
        -0,
        0.70710678118654757
      ]
    },
    {
      "children": [
        2
      ],
      "name": "RootNode (model correction matrix)"
    },
    {
      "children": [
        3
      ],
      "matrix": [
        1,
        0,
        0,
        0,
        0,
        1,
        0,
        0,
        0,
        0,
        1,
        0,
        -33.730800628662109,
        -23.568899154663086,
        0.16300000250339508,
        1
      ],
      "name": "92e73808ccff45a9a87cac3538917c69.obj.cleaner.gles"
    },
    {
      "children": [
        4,
        5
      ],
      "name": ""
    },
    {
      "mesh": 0,
      "name": ""
    },
    {
      "mesh": 1,
      "name": ""
    }
  ],
  "samplers": [
    {
      "magFilter": 9729,
      "minFilter": 9987,
      "wrapS": 10497,
      "wrapT": 10497
    },
    {
      "magFilter": 9728,
      "minFilter": 9728,
      "wrapS": 10497,
      "wrapT": 10497
    }
  ],
  "scene": 0,
  "scenes": [
    {
      "name": "OSG_Scene",
      "nodes": [
        0
      ]
    }
  ],
  "textures": [
    {
      "sampler": 0,
      "source": 0
    },
    {
      "sampler": 0,
      "source": 1
    },
    {
      "sampler": 0,
      "source": 2
    },
    {
      "sampler": 1,
      "source": 3
    },
    {
      "sampler": 0,
      "source": 4
    },
    {
      "sampler": 0,
      "source": 5
    },
    {
      "sampler": 0,
      "source": 6
    }
  ]
}

