{
  "accessors": [
    {
      "bufferView": 2,
      "componentType": 5126,
      "count": 4785,
      "max": [
        34.463638305664062,
        3.9486370086669922,
        39.370082855224609
      ],
      "min": [
        -14.768645286560059,
        -35.627765655517578,
        -7.0915107727050781
      ],
      "type": "VEC3"
    },
    {
      "bufferView": 2,
      "byteOffset": 57420,
      "componentType": 5126,
      "count": 4785,
      "max": [
        1,
        1,
        1
      ],
      "min": [
        -1,
        -1,
        -1
      ],
      "type": "VEC3"
    },
    {
      "bufferView": 3,
      "componentType": 5126,
      "count": 4785,
      "max": [
        0.99954253435134888,
        1,
        1,
        1
      ],
      "min": [
        -0.99885386228561401,
        -1,
        -1,
        -1
      ],
      "type": "VEC4"
    },
    {
      "bufferView": 1,
      "componentType": 5126,
      "count": 4785,
      "max": [
        1.9958374500274658,
        0.95628964900970459
      ],
      "min": [
        -0.9022376537322998,
        0.0068679153919219971
      ],
      "type": "VEC2"
    },
    {
      "bufferView": 0,
      "componentType": 5125,
      "count": 6966,
      "max": [
        4784
      ],
      "min": [
        0
      ],
      "type": "SCALAR"
    },
    {
      "bufferView": 4,
      "componentType": 5126,
      "count": 301,
      "max": [
        10
      ],
      "min": [
        0
      ],
      "type": "SCALAR"
    },
    {
      "bufferView": 5,
      "componentType": 5126,
      "count": 301,
      "max": [
        0.70710605382919312,
        0.70710611343383789,
        0.70710611343383789,
        0.70710605382919312
      ],
      "min": [
        -0.49999997019767761,
        -0.50000005960464478,
        -0.50000005960464478,
        -0.49999997019767761
      ],
      "type": "VEC4"
    }
  ],
  "animations": [
    {
      "channels": [
        {
          "sampler": 0,
          "target": {
            "node": 5,
            "path": "rotation"
          }
        }
      ],
      "name": "Take 001",
      "samplers": [
        {
          "input": 5,
          "interpolation": "LINEAR",
          "output": 6
        }
      ]
    }
  ],
  "asset": {
    "extras": {
      "author": "Rory Peace (https://sketchfab.com/rorypeace)",
      "license": "CC-BY-4.0 (http://creativecommons.org/licenses/by/4.0/)",
      "source": "https://sketchfab.com/models/165158c77bec4b4a93b8bc81b70c46e6",
      "title": "Concrete Modular Sculpture"
    },
    "generator": "Sketchfab-3.20.7",
    "version": "2.0"
  },
  "bufferViews": [
    {
      "buffer": 0,
      "byteLength": 27864,
      "byteOffset": 0,
      "name": "floatBufferViews",
      "target": 34963
    },
    {
      "buffer": 0,
      "byteLength": 38280,
      "byteOffset": 27864,
      "byteStride": 8,
      "name": "floatBufferViews",
      "target": 34962
    },
    {
      "buffer": 0,
      "byteLength": 114840,
      "byteOffset": 66144,
      "byteStride": 12,
      "name": "floatBufferViews",
      "target": 34962
    },
    {
      "buffer": 0,
      "byteLength": 76560,
      "byteOffset": 180984,
      "byteStride": 16,
      "name": "floatBufferViews",
      "target": 34962
    },
    {
      "buffer": 0,
      "byteLength": 1204,
      "byteOffset": 257544,
      "name": "floatBufferViews"
    },
    {
      "buffer": 0,
      "byteLength": 4816,
      "byteOffset": 258748,
      "byteStride": 16,
      "name": "floatBufferViews"
    }
  ],
  "buffers": [
    {
      "byteLength": 263564,
      "uri": "scene.bin"
    }
  ],
  "images": [
    {
      "uri": "textures/concrete_baseColor.png"
    },
    {
      "uri": "textures/concrete_metallicRoughness.png"
    }
  ],
  "materials": [
    {
      "doubleSided": true,
      "name": "concrete",
      "occlusionTexture": {
        "index": 1,
        "strength": 1,
        "texCoord": 0
      },
      "pbrMetallicRoughness": {
        "baseColorFactor": [
          0.90000000000000002,
          0.90000000000000002,
          0.90000000000000002,
          1
        ],
        "baseColorTexture": {
          "index": 0,
          "texCoord": 0
        },
        "metallicFactor": 0.14999999999999999,
        "roughnessFactor": 1
      }
    }
  ],
  "meshes": [
    {
      "name": "concrete_mod_007_concrete_0",
      "primitives": [
        {
          "attributes": {
            "NORMAL": 1,
            "POSITION": 0,
            "TANGENT": 2,
            "TEXCOORD_0": 3
          },
          "indices": 4,
          "material": 0,
          "mode": 4
        }
      ]
    }
  ],
  "nodes": [
    {
      "children": [
        1
      ],
      "name": "RootNode (gltf orientation matrix)",
      "rotation": [
        -0.70710678118654746,
        -0,
        -0,
        0.70710678118654757
      ]
    },
    {
      "children": [
        2
      ],
      "name": "RootNode (model correction matrix)"
    },
    {
      "children": [
        3
      ],
      "matrix": [
        1,
        0,
        0,
        0,
        0,
        0,
        1,
        0,
        0,
        -1,
        0,
        0,
        0,
        0,
        0,
        1
      ],
      "name": "c79b45181aa342039e790c749e971e90.fbx"
    },
    {
      "children": [
        4
      ],
      "name": ""
    },
    {
      "children": [
        5
      ],
      "name": "RootNode"
    },
    {
      "children": [
        6
      ],
      "name": "concrete_mod_007",
      "rotation": [
        -0.50000005960464478,
        -0.49999997019767761,
        0.49999997019767761,
        0.50000005960464478
      ],
      "translation": [
        18.309530258178711,
        24.596456527709961,
        4.5249147415161133
      ]
    },
    {
      "children": [
        7
      ],
      "matrix": [
        1,
        0,
        -0,
        0,
        0,
        1,
        0,
        0,
        0,
        0,
        1,
        0,
        -9.8474960327148438,
        15.349530220031738,
        -16.139286041259766,
        1
      ],
      "name": ""
    },
    {
      "mesh": 0,
      "name": "concrete_mod_007_concrete_0"
    }
  ],
  "samplers": [
    {
      "magFilter": 9729,
      "minFilter": 9987,
      "wrapS": 10497,
      "wrapT": 10497
    }
  ],
  "scene": 0,
  "scenes": [
    {
      "name": "OSG_Scene",
      "nodes": [
        0
      ]
    }
  ],
  "textures": [
    {
      "sampler": 0,
      "source": 0
    },
    {
      "sampler": 0,
      "source": 1
    }
  ]
}

