{
  "accessors": [
    {
      "bufferView": 1,
      "componentType": 5126,
      "count": 4925,
      "max": [
        1.0689200162887573,
        1.1676700115203857,
        1
      ],
      "min": [
        -1,
        -1.1669900417327881,
        -1.0009200572967529
      ],
      "type": "VEC3"
    },
    {
      "bufferView": 1,
      "byteOffset": 59100,
      "componentType": 5126,
      "count": 4925,
      "max": [
        1,
        1,
        1
      ],
      "min": [
        -1,
        -1,
        -1
      ],
      "type": "VEC3"
    },
    {
      "bufferView": 0,
      "componentType": 5125,
      "count": 13170,
      "max": [
        4924
      ],
      "min": [
        0
      ],
      "type": "SCALAR"
    },
    {
      "bufferView": 1,
      "byteOffset": 118200,
      "componentType": 5126,
      "count": 128,
      "max": [
        0.81133002042770386,
        1.149340033531189,
        0.071390002965927124
      ],
      "min": [
        -0.51710999011993408,
        -1.1486599445343018,
        -0.12223000079393387
      ],
      "type": "VEC3"
    },
    {
      "bufferView": 1,
      "byteOffset": 119736,
      "componentType": 5126,
      "count": 128,
      "max": [
        -0,
        1,
        -0
      ],
      "min": [
        -0,
        -1,
        -0
      ],
      "type": "VEC3"
    },
    {
      "bufferView": 0,
      "byteOffset": 52680,
      "componentType": 5125,
      "count": 360,
      "max": [
        127
      ],
      "min": [
        0
      ],
      "type": "SCALAR"
    },
    {
      "bufferView": 1,
      "byteOffset": 121272,
      "componentType": 5126,
      "count": 1600,
      "max": [
        -0.0098900003358721733,
        0.83736002445220947,
        0.83736002445220947
      ],
      "min": [
        -0.024749999865889549,
        -0.83736002445220947,
        -0.83736002445220947
      ],
      "type": "VEC3"
    },
    {
      "bufferView": 1,
      "byteOffset": 140472,
      "componentType": 5126,
      "count": 1600,
      "max": [
        0.99999839067459106,
        0.99910122156143188,
        0.99910122156143188
      ],
      "min": [
        -2.0000035874545574e-05,
        -0.99910122156143188,
        -0.99910122156143188
      ],
      "type": "VEC3"
    },
    {
      "bufferView": 2,
      "componentType": 5126,
      "count": 1600,
      "max": [
        0.99970537424087524,
        0.93167251348495483,
        0.77554231882095337,
        1
      ],
      "min": [
        -0.99983447790145874,
        -0.086086906492710114,
        -0.2487565279006958,
        1
      ],
      "type": "VEC4"
    },
    {
      "bufferView": 0,
      "byteOffset": 54120,
      "componentType": 5125,
      "count": 4608,
      "max": [
        1599
      ],
      "min": [
        0
      ],
      "type": "SCALAR"
    },
    {
      "bufferView": 1,
      "byteOffset": 159672,
      "componentType": 5126,
      "count": 1417,
      "max": [
        0.11913000047206879,
        0.83736002445220947,
        0.83736002445220947
      ],
      "min": [
        -0.035989999771118164,
        -0.83736002445220947,
        -0.83736002445220947
      ],
      "type": "VEC3"
    },
    {
      "bufferView": 1,
      "byteOffset": 176676,
      "componentType": 5126,
      "count": 1417,
      "max": [
        1,
        0.99910122156143188,
        0.99910122156143188
      ],
      "min": [
        -3.0000051992828958e-05,
        -0.99910122156143188,
        -0.99910122156143188
      ],
      "type": "VEC3"
    },
    {
      "bufferView": 2,
      "byteOffset": 25600,
      "componentType": 5126,
      "count": 1417,
      "max": [
        0.99996459484100342,
        0.92765527963638306,
        0.77397316694259644,
        1
      ],
      "min": [
        -0.99996459484100342,
        -0.085459627211093903,
        -0.24726276099681854,
        1
      ],
      "type": "VEC4"
    },
    {
      "bufferView": 0,
      "byteOffset": 72552,
      "componentType": 5125,
      "count": 4608,
      "max": [
        1416
      ],
      "min": [
        0
      ],
      "type": "SCALAR"
    },
    {
      "bufferView": 1,
      "byteOffset": 193680,
      "componentType": 5126,
      "count": 2376,
      "max": [
        0.16220000386238098,
        1.3065500259399414,
        2.3281500339508057
      ],
      "min": [
        -0.1534699946641922,
        -1.3065500259399414,
        -0.47694000601768494
      ],
      "type": "VEC3"
    },
    {
      "bufferView": 1,
      "byteOffset": 222192,
      "componentType": 5126,
      "count": 2376,
      "max": [
        1,
        1,
        1
      ],
      "min": [
        -1,
        -1,
        -1
      ],
      "type": "VEC3"
    },
    {
      "bufferView": 0,
      "byteOffset": 90984,
      "componentType": 5125,
      "count": 6078,
      "max": [
        2375
      ],
      "min": [
        0
      ],
      "type": "SCALAR"
    },
    {
      "bufferView": 1,
      "byteOffset": 250704,
      "componentType": 5126,
      "count": 8012,
      "max": [
        0.32993999123573303,
        1.2580100297927856,
        3.7902600765228271
      ],
      "min": [
        -0.25407001376152039,
        -1.2580000162124634,
        -0.11642000079154968
      ],
      "type": "VEC3"
    },
    {
      "bufferView": 1,
      "byteOffset": 346848,
      "componentType": 5126,
      "count": 8012,
      "max": [
        1,
        1,
        1
      ],
      "min": [
        -1,
        -1,
        -1
      ],
      "type": "VEC3"
    },
    {
      "bufferView": 0,
      "byteOffset": 115296,
      "componentType": 5125,
      "count": 14802,
      "max": [
        8011
      ],
      "min": [
        0
      ],
      "type": "SCALAR"
    }
  ],
  "asset": {
    "extras": {
      "author": "Mike Rowley (https://sketchfab.com/scrumpy26)",
      "license": "CC-BY-NC-4.0 (http://creativecommons.org/licenses/by-nc/4.0/)",
      "source": "https://sketchfab.com/models/8d4ef7df22d84d4c8dafc78a8dbeff12",
      "title": "Stage Light Zoom Spot"
    },
    "generator": "Sketchfab-3.20.7",
    "version": "2.0"
  },
  "bufferViews": [
    {
      "buffer": 0,
      "byteLength": 174504,
      "byteOffset": 0,
      "name": "floatBufferViews",
      "target": 34963
    },
    {
      "buffer": 0,
      "byteLength": 442992,
      "byteOffset": 174504,
      "byteStride": 12,
      "name": "floatBufferViews",
      "target": 34962
    },
    {
      "buffer": 0,
      "byteLength": 48272,
      "byteOffset": 617496,
      "byteStride": 16,
      "name": "floatBufferViews",
      "target": 34962
    }
  ],
  "buffers": [
    {
      "byteLength": 665768,
      "uri": "scene.bin"
    }
  ],
  "materials": [
    {
      "doubleSided": true,
      "emissiveFactor": [
        0,
        0,
        0
      ],
      "name": "Material",
      "pbrMetallicRoughness": {
        "baseColorFactor": [
          0.002397326,
          0.0023018572000000001,
          0.0023018572000000001,
          1
        ],
        "metallicFactor": 0.19,
        "roughnessFactor": 0.31
      }
    },
    {
      "doubleSided": true,
      "emissiveFactor": [
        0,
        0,
        0
      ],
      "name": "Material.001",
      "pbrMetallicRoughness": {
        "baseColorFactor": [
          0.67727894817599998,
          0.67049118784799999,
          0.67049118784799999,
          1
        ],
        "metallicFactor": 1,
        "roughnessFactor": 0.070000000000000007
      }
    },
    {
      "alphaMode": "BLEND",
      "doubleSided": true,
      "emissiveFactor": [
        0,
        0,
        0
      ],
      "name": "Material.003",
      "pbrMetallicRoughness": {
        "baseColorFactor": [
          0.5,
          0.5,
          0.5,
          0.90000000000000002
        ],
        "metallicFactor": 1,
        "roughnessFactor": 0.42999999999999999
      }
    }
  ],
  "meshes": [
    {
      "name": "Cube_0",
      "primitives": [
        {
          "attributes": {
            "NORMAL": 1,
            "POSITION": 0
          },
          "indices": 2,
          "material": 0,
          "mode": 4
        }
      ]
    },
    {
      "name": "Cube_1",
      "primitives": [
        {
          "attributes": {
            "NORMAL": 4,
            "POSITION": 3
          },
          "indices": 5,
          "material": 1,
          "mode": 4
        }
      ]
    },
    {
      "name": "lens_0",
      "primitives": [
        {
          "attributes": {
            "NORMAL": 7,
            "POSITION": 6,
            "TANGENT": 8
          },
          "indices": 9,
          "material": 1,
          "mode": 4
        }
      ]
    },
    {
      "name": "lens_1",
      "primitives": [
        {
          "attributes": {
            "NORMAL": 11,
            "POSITION": 10,
            "TANGENT": 12
          },
          "indices": 13,
          "material": 2,
          "mode": 4
        }
      ]
    },
    {
      "name": "hanger_0",
      "primitives": [
        {
          "attributes": {
            "NORMAL": 15,
            "POSITION": 14
          },
          "indices": 16,
          "material": 0,
          "mode": 4
        }
      ]
    },
    {
      "name": "hanger_1",
      "primitives": [
        {
          "attributes": {
            "NORMAL": 18,
            "POSITION": 17
          },
          "indices": 19,
          "material": 1,
          "mode": 4
        }
      ]
    }
  ],
  "nodes": [
    {
      "children": [
        1
      ],
      "name": "RootNode (gltf orientation matrix)",
      "rotation": [
        -0.70710678118654746,
        -0,
        -0,
        0.70710678118654757
      ]
    },
    {
      "children": [
        2
      ],
      "name": "RootNode (model correction matrix)"
    },
    {
      "children": [
        3,
        5,
        8,
        11,
        13
      ],
      "name": "Root"
    },
    {
      "children": [
        4
      ],
      "matrix": [
        0.57416,
        0.14510000000000001,
        0.80578000000000005,
        0,
        -0.78505000000000003,
        -0.18187,
        0.59214000000000011,
        0,
        0.23247000000000001,
        -0.97255999999999987,
        0.0094900000000000019,
        0,
        6.4035400000000005,
        -6.4495600000000008,
        1.27075,
        1
      ],
      "name": "Lamp"
    },
    {
      "name": "Lamp"
    },
    {
      "children": [
        6,
        7
      ],
      "matrix": [
        2.3511499999999996,
        0,
        -1.1006,
        0,
        0,
        1,
        0,
        0,
        0.42404000000000003,
        0,
        0.90585000000000004,
        0,
        -0.35375000000000001,
        0,
        0.45630000000000004,
        1
      ],
      "name": "Cube"
    },
    {
      "mesh": 0,
      "name": "Cube_0"
    },
    {
      "mesh": 1,
      "name": "Cube_1"
    },
    {
      "children": [
        9,
        10
      ],
      "matrix": [
        1.56812,
        0,
        -0.51917999999999997,
        0,
        0,
        1,
        0,
        0,
        0.31430000000000008,
        0,
        0.94932000000000005,
        0,
        0.85749000000000009,
        0,
        -0.11577000000000003,
        1
      ],
      "name": "lens"
    },
    {
      "mesh": 2,
      "name": "lens_0"
    },
    {
      "mesh": 3,
      "name": "lens_1"
    },
    {
      "children": [
        12
      ],
      "matrix": [
        0.63931000000000004,
        0,
        -0.76895000000000013,
        0,
        0,
        1,
        0,
        0,
        0.76895000000000013,
        0,
        0.63931000000000004,
        0,
        -0.099520000000000039,
        0,
        -0.14228000000000002,
        1
      ],
      "name": "Point"
    },
    {
      "name": "Point"
    },
    {
      "children": [
        14,
        15
      ],
      "matrix": [
        1.6430899999999999,
        0,
        -0.16978000000000004,
        0,
        0,
        1,
        0,
        0,
        0.10278000000000001,
        0,
        0.99470000000000003,
        0,
        -0.56374000000000013,
        -0.020730000000000002,
        1.24735,
        1
      ],
      "name": "hanger"
    },
    {
      "mesh": 4,
      "name": "hanger_0"
    },
    {
      "mesh": 5,
      "name": "hanger_1"
    }
  ],
  "scene": 0,
  "scenes": [
    {
      "name": "OSG_Scene",
      "nodes": [
        0
      ]
    }
  ]
}

